<svg width="37" height="37" viewBox="0 0 37 37" fill="none" xmlns="http://www.w3.org/2000/svg">
<rect width="37" height="37" rx="8" fill="#8E49FF"/>
<path d="M19.2344 9.89062L27.1094 17.7656" stroke="white" stroke-width="2" stroke-miterlimit="10" stroke-linecap="round" stroke-linejoin="round"/>
<path d="M20.7812 11.3906L11.0312 21.1406C10.5667 21.6028 10.2447 22.1886 10.1035 22.8285C9.96222 23.4683 10.0076 24.1352 10.2343 24.75L8.40619 26.5781C8.27736 26.7096 8.2052 26.8863 8.2052 27.0703C8.2052 27.2544 8.27736 27.4311 8.40619 27.5625L9.48432 28.6406C9.61575 28.7695 9.79246 28.8416 9.97651 28.8416C10.1606 28.8416 10.3373 28.7695 10.4687 28.6406L12.2968 26.8125C12.9096 27.0237 13.5697 27.0565 14.2004 26.9071C14.8311 26.7577 15.4064 26.4323 15.8593 25.9687L25.6093 16.2188" stroke="white" stroke-width="2" stroke-miterlimit="10" stroke-linecap="round" stroke-linejoin="round"/>
<path d="M25.6094 16.2188L28.7969 13.0313C29.3672 12.3778 29.6681 11.5321 29.6387 10.6652C29.6092 9.7983 29.2517 8.97495 28.6384 8.36162C28.0251 7.7483 27.2017 7.39077 26.3348 7.36135C25.468 7.33192 24.6223 7.6328 23.9688 8.20313L20.7812 11.3906" stroke="white" stroke-width="2" stroke-miterlimit="10" stroke-linecap="round" stroke-linejoin="round"/>
</svg>
